<?xml version="1.0" encoding="utf-8"?>
<!-- Generator: Adobe Illustrator 15.1.0, SVG Export Plug-In . SVG Version: 6.00 Build 0)  -->
<!DOCTYPE svg PUBLIC "-//W3C//DTD SVG 1.1//EN" "http://www.w3.org/Graphics/SVG/1.1/DTD/svg11.dtd">
<svg version="1.1" id="Layer_1" xmlns="http://www.w3.org/2000/svg" xmlns:xlink="http://www.w3.org/1999/xlink" x="0px" y="0px"
	 viewBox="0 0 2540 750" enable-background="new 0 0 2540 750" xml:space="preserve">
<g>
	<g>
		<g>
			<g>
				<path fill="#097E93" d="M404.365,253.061c20.434,0,39.636,5.099,57.62,15.324c17.983,10.22,32.012,24.085,42.094,41.596
					c10.088,17.521,15.129,36.427,15.129,56.723c0,20.439-5.074,39.552-15.229,57.328c-10.146,17.78-23.979,31.678-41.5,41.695
					c-17.511,10.019-36.82,15.038-57.917,15.038c-31.052,0-57.556-11.059-79.518-33.153c-21.958-22.084-32.936-48.923-32.936-80.505
					c0-33.833,12.406-62.03,37.218-84.592C351.085,262.877,376.099,253.061,404.365,253.061z M405.256,304.208
					c-16.879,0-30.934,5.874-42.168,17.627c-11.228,11.738-16.848,26.759-16.848,45.076c0,18.842,5.551,34.103,16.657,45.777
					c11.096,11.684,25.146,17.51,42.163,17.51c17.006,0,31.163-5.9,42.461-17.712c11.296-11.806,16.953-27.003,16.953-45.575
					c0-18.577-5.556-33.667-16.651-45.289C436.722,310.018,422.539,304.208,405.256,304.208z"/>
				<path fill="#097E93" d="M657.184,253.061c20.433,0,39.643,5.099,57.625,15.324c17.978,10.22,32.012,24.085,42.094,41.596
					c10.082,17.521,15.129,36.427,15.129,56.723c0,20.439-5.079,39.552-15.225,57.328c-10.155,17.78-23.989,31.678-41.5,41.695
					c-17.516,10.019-36.824,15.038-57.922,15.038c-31.051,0-57.555-11.059-79.513-33.153
					c-21.962-22.084-32.946-48.923-32.946-80.505c0-33.833,12.411-62.03,37.223-84.592
					C603.916,262.877,628.923,253.061,657.184,253.061z M658.08,304.208c-16.879,0-30.939,5.874-42.162,17.627
					c-11.239,11.738-16.847,26.759-16.847,45.076c0,18.842,5.544,34.103,16.645,45.777c11.095,11.684,25.157,17.51,42.168,17.51
					c17.007,0,31.163-5.9,42.466-17.712c11.292-11.806,16.948-27.003,16.948-45.575c0-18.577-5.556-33.667-16.65-45.289
					C689.545,310.018,675.363,304.208,658.08,304.208z"/>
				<path fill="#097E93" d="M808.702,175.039h54.335v172.87l80.011-89.276h68.238l-93.282,103.794l104.441,112.756h-67.452
					l-91.957-99.799v99.799h-54.335V175.039z"/>
				<path fill="#097E93" d="M1082.183,169.462c9.525,0,17.702,3.455,24.516,10.358c6.807,6.898,10.213,15.256,10.213,25.072
					c0,9.688-3.375,17.95-10.117,24.785c-6.756,6.823-14.821,10.252-24.218,10.252c-9.658,0-17.893-3.492-24.707-10.454
					s-10.22-15.425-10.22-25.374c0-9.557,3.37-17.718,10.114-24.483C1064.514,172.853,1072.653,169.462,1082.183,169.462z
					 M1055.015,258.633h54.335v216.551h-54.335V258.633z"/>
				<path fill="#097E93" d="M1166.821,258.633h54.342v22.19c12.321-10.379,23.485-17.601,33.481-21.676
					c9.997-4.054,20.243-6.086,30.707-6.086c21.475,0,39.686,7.498,54.659,22.482c12.592,12.745,18.886,31.593,18.886,56.543
					v143.097h-53.736v-94.832c0-25.847-1.174-43.007-3.486-51.481c-2.314-8.49-6.352-14.942-12.104-19.388
					c-5.769-4.437-12.878-6.665-21.348-6.665c-10.988,0-20.423,3.672-28.297,11.036c-7.874,7.36-13.334,17.533-16.385,30.522
					c-1.582,6.754-2.377,21.405-2.377,43.924v86.884h-54.342V258.633z"/>
				<path fill="#87C66E" d="M1925.098,258.633h54.935v104.304c0,20.296,1.396,34.395,4.182,42.29
					c2.79,7.891,7.274,14.03,13.473,18.413c6.177,4.372,13.802,6.558,22.848,6.558c9.048,0,16.731-2.154,23.039-6.462
					c6.32-4.31,11.012-10.649,14.072-19.008c2.267-6.234,3.392-19.579,3.392-40.003V258.633h54.33v91.749
					c0,37.822-2.977,63.7-8.951,77.63c-7.286,16.99-18.047,30.027-32.246,39.106c-14.193,9.095-32.246,13.647-54.145,13.647
					c-23.734,0-42.938-5.312-57.614-15.93c-14.656-10.612-24.972-25.416-30.945-44.38c-4.246-13.139-6.368-37.032-6.368-71.655
					V258.633z"/>
			</g>
			<path fill="#097E93" d="M255.022,309.981c-10.083-17.511-24.111-31.376-42.095-41.596c-17.982-10.225-37.185-15.324-57.62-15.324
				c-21.288,0-40.719,5.577-58.315,16.72v-94.615H43.051v191.941c0,31.582,10.979,58.421,32.935,80.505
				c21.962,22.095,48.467,33.153,79.519,33.153c21.098,0,40.407-5.02,57.917-15.038c17.521-10.018,31.354-23.915,41.5-41.695
				c10.156-17.776,15.229-36.889,15.229-57.328C270.15,346.408,265.11,327.502,255.022,309.981z M198.464,412.485
				c-11.297,11.812-25.454,17.712-42.461,17.712c-17.011,0-31.067-5.826-42.163-17.51c-11.105-11.674-16.656-26.935-16.656-45.777
				c0-18.317,5.62-33.338,16.848-45.076c11.233-11.753,25.289-17.627,42.168-17.627c17.282,0,31.466,5.811,42.566,17.415
				c11.095,11.621,16.651,26.712,16.651,45.289C215.417,385.482,209.765,400.68,198.464,412.485z"/>
			<path fill="#87C66E" d="M1874.784,309.981c-10.076-17.511-24.117-31.376-42.084-41.596
				c-17.981-10.225-37.189-15.324-57.629-15.324c-21.279,0-40.721,5.577-58.306,16.72v-94.615h-53.942v191.941
				c0,31.582,10.973,58.421,32.93,80.505c21.962,22.095,48.473,33.153,79.524,33.153c21.093,0,40.406-5.02,57.917-15.038
				c17.505-10.018,31.339-23.915,41.5-41.695c10.155-17.776,15.224-36.889,15.224-57.328
				C1889.918,346.408,1884.883,327.502,1874.784,309.981z M1818.236,412.485c-11.303,11.812-25.465,17.712-42.466,17.712
				c-17.017,0-31.072-5.826-42.163-17.51c-11.105-11.674-16.656-26.935-16.656-45.777c0-18.317,5.62-33.338,16.848-45.076
				c11.233-11.753,25.289-17.627,42.175-17.627c17.271,0,31.454,5.811,42.56,17.415c11.096,11.621,16.656,26.712,16.656,45.289
				C1835.189,385.482,1829.533,400.68,1818.236,412.485z"/>
			<path fill="#097E93" d="M1586.25,286.861c-21.958-22.09-48.467-33.137-79.52-33.137c-21.097,0-40.406,5.009-57.923,15.027
				c-17.509,10.013-31.342,23.916-41.499,41.707c-10.15,17.775-15.228,36.878-15.228,57.307c0,20.312,5.046,39.224,15.132,56.729
				c10.076,17.515,24.117,31.391,42.094,41.595c17.979,10.22,37.182,15.33,57.621,15.33c21.125,0,40.725-5.609,58.209-16.583
				c0.139-0.079-0.033,16.18,0.105,16.1c-0.912,21.458-15.595,32.973-24.482,37.482c-8.889,4.511-20.641,6.767-35.232,6.767
				c-11.414,0-21.294-1.561-29.657-4.676c-8.362-3.119-15.191-7.731-20.504-13.828h-59.911c4.786,14.726,12.14,27.227,22.1,37.509
				c9.949,10.284,22.159,18.079,36.623,23.39c14.461,5.308,32.311,7.967,53.545,7.967c39.803,0,69.591-11.676,89.362-35.032
				c14.724-17.256,22.096-44.19,22.096-80.813v-92.328C1619.181,335.79,1608.207,308.956,1586.25,286.861z M1548.21,412.655
				c-11.238,11.748-25.296,17.617-42.175,17.617c-17.281,0-31.459-5.811-42.57-17.416c-11.09-11.614-16.646-26.711-16.646-45.282
				c0-18.583,5.651-33.769,16.948-45.585c11.296-11.806,25.463-17.718,42.466-17.718c17.015,0,31.072,5.848,42.161,17.532
				c11.112,11.674,16.656,26.924,16.656,45.771C1565.051,385.88,1559.433,400.918,1548.21,412.655z"/>
		</g>
		<g>
			<path fill="#097E93" d="M2424.021,424.371h-15.955v-6.686h40.885v6.686h-15.977v35.87h-8.953V424.371z"/>
			<path fill="#097E93" d="M2453.292,417.686h12.866l14.912,33.016l14.783-33.016h12.724v42.556h-8.401l0.352-35.159h-0.096
				l-15.738,35.159h-7.635l-15.606-35.159h-0.11l0.344,35.159h-8.394V417.686z"/>
		</g>
		<path fill="#87C66E" d="M2345.019,287.1c-21.963-22.09-48.472-33.143-79.513-33.143c-21.108,0-40.406,5.015-57.933,15.028
			c-17.511,10.018-31.339,23.91-41.501,41.696c-10.139,17.781-15.223,36.883-15.223,57.328c0,20.29,5.053,39.201,15.127,56.723
			c10.082,17.51,24.117,31.381,42.105,41.596c17.967,10.22,37.175,15.318,57.614,15.318c21.12,0,40.72-5.604,58.214-16.571
			c0.129-0.09-0.031,16.179,0.096,16.094c-0.902,21.458-15.59,32.973-24.482,37.483c-8.889,4.511-20.631,6.759-35.223,6.759
			c-11.424,0-21.294-1.549-29.662-4.668c-8.367-3.127-15.196-7.737-20.502-13.839h-59.912c4.785,14.74,12.134,27.242,22.1,37.524
			c9.953,10.284,22.154,18.079,36.624,23.392c14.464,5.306,32.309,7.947,53.538,7.947c39.803,0,69.598-11.663,89.367-35.021
			c14.726-17.249,22.091-44.189,22.091-80.802v-92.338C2377.944,336.028,2366.98,309.185,2345.019,287.1z M2306.974,412.889
			c-11.233,11.748-25.289,17.611-42.163,17.611c-17.288,0-31.471-5.8-42.578-17.414c-11.094-11.616-16.64-26.696-16.64-45.278
			c0-18.583,5.642-33.773,16.938-45.581c11.296-11.801,25.464-17.711,42.466-17.711c17.021,0,31.072,5.836,42.168,17.51
			c11.105,11.684,16.649,26.935,16.649,45.782C2323.814,386.114,2318.206,401.146,2306.974,412.889z"/>
	</g>
</g>
</svg>
